<?xml version="1.0" encoding="utf-8"?>
<!-- Generator: Adobe Illustrator 27.9.0, SVG Export Plug-In . SVG Version: 6.00 Build 0)  -->
<svg version="1.1" id="Layer_1" xmlns="http://www.w3.org/2000/svg" xmlns:xlink="http://www.w3.org/1999/xlink" x="0px" y="0px"
	 viewBox="0 0 300 62" style="enable-background:new 0 0 300 62;" xml:space="preserve">
<g>
	<path d="M8.9,1.7v21.6h7.5V31H1V1.7H8.9z"/>
	<path d="M17.3,16.2C17.3,6.6,20.9,1,28,1s10.7,5.6,10.7,15.2c0,9.3-3.7,15.4-10.7,15.4S17.3,25.5,17.3,16.2z M28,23.6
		c1.9,0,2.4-3.8,2.4-7.5c0-3.8-0.5-7.3-2.4-7.3s-2.3,3.4-2.3,7.3C25.6,19.8,26.1,23.6,28,23.6z"/>
	<path d="M49.7,31.6c-6.2,0-9.9-6-9.9-15.3c0-9.6,3.8-15.3,10-15.3c5.8,0,9.5,4.4,9.6,11.8h-7C52.1,10.6,51.5,9,50.1,9
		c-1.8,0-2.4,3.4-2.4,7.2s0.5,7.5,2.3,7.5c1.6,0,2.2-2.1,2.3-4.3h7.3C59.7,27.2,55.6,31.6,49.7,31.6z"/>
	<path d="M69.4,1.7v10.4l3-10.5h8.2l-5.3,15.7l0,0L81.1,31h-8.5l-3.3-9.3V31h-7.8V1.7H69.4z"/>
	<path d="M99.2,1.7v7.7h-9v3.1l7.2,0.1v7.5l-7.2,0.1v3.1h9V31H82.4V1.7H99.2z"/>
	<path d="M109.6,1.7c5.5,0,10.4,3.1,10.4,9.8c0,3.1-1.6,6.4-3.5,7.5l4.4,12l-8.4,0.1l-2.9-10.6h-0.5v10.6h-7.8V1.7H109.6z M110,13.6
		c1,0,2.1-0.7,2.1-2.3c0-1.5-0.9-2.2-1.9-2.3h-1.1v4.5L110,13.6z"/>
	<path d="M3.7,57C2,54.3,1.1,50.7,1.1,46.1c0-4.7,0.9-8.3,2.7-10.8c1.8-2.6,4.4-3.8,7.8-3.8s6,1.3,7.8,3.8c1.8,2.6,2.7,6.2,2.7,10.8
		s-0.9,8.2-2.7,10.9c-1.8,2.6-4.4,4-7.8,4S5.5,59.6,3.7,57z M9.7,51.3c0.3,1.4,0.9,2.1,1.8,2.1c0.9,0,1.5-0.7,1.8-2.1
		c0.3-1.4,0.5-3.1,0.5-5.2c0-4.7-0.8-7-2.3-7s-2.3,2.3-2.3,7C9.2,48.2,9.4,49.9,9.7,51.3z"/>
	<path d="M39.6,56.4c-0.7,1.4-1.7,2.5-3.1,3.3c-1.4,0.8-3,1.2-4.9,1.2s-3.6-0.4-4.9-1.2c-1.4-0.8-2.4-1.9-3.1-3.3
		c-0.7-1.4-1.1-3-1.1-4.7V32h7.7v18.3c0,1.1,0.1,1.8,0.3,2.3c0.2,0.5,0.6,0.8,1.2,0.8c0.6,0,1-0.2,1.2-0.8c0.2-0.5,0.3-1.3,0.3-2.3
		V32h7.4v19.8C40.7,53.5,40.3,55,39.6,56.4z"/>
	<path d="M63.1,39.5h-6.5v21.2h-7.7V39.5h-7V32h21.2V39.5z"/>
	<path d="M72.5,32.1v21.2h8.7v7.5H64.5V32.1H72.5z"/>
	<path d="M99.2,31.8v7.5h-8.9v3.1l7.2,0.1v7.3l-7.2,0.1v3h8.9v7.5H82.5V31.8H99.2z"/>
	<path d="M120.8,39.3H115v21.2h-7.9V39.3h-5.8v-7.5h19.6L120.8,39.3L120.8,39.3z"/>
</g>
</svg>
