<?xml version="1.0" encoding="utf-8"?>
<!-- Generator: Adobe Illustrator 27.9.0, SVG Export Plug-In . SVG Version: 6.00 Build 0)  -->
<svg version="1.1" id="Layer_1" xmlns="http://www.w3.org/2000/svg" xmlns:xlink="http://www.w3.org/1999/xlink" x="0px" y="0px"
	 viewBox="0 0 300 62" style="enable-background:new 0 0 300 62;" xml:space="preserve">
<g>
	<g>
		<g>
			<path d="M12.7,10.7L12.7,10.7L12.7,10.7z"/>
			<path d="M148.7,26.1c-0.8,0-1.7-0.2-2.6-0.7l-0.4-0.2l-2,4.4l0.4,0.2c1.7,0.9,3.3,1.3,5.2,1.3c3.6,0,5.6-1.7,7.3-6.2l8.6-22.3
				h-0.6h-5.4c0,0-4.4,12.7-5.2,14.7c-0.8-2-5.7-14.7-5.7-14.7h-6.1c0,0,8.8,21.1,9,21.5C150.5,25.7,149.7,26.1,148.7,26.1z"/>
			<path d="M93,20.5l0.3-0.3l-3.5-3.5L89.4,17c-1.7,1.7-3.3,2.5-5.1,2.5c-3.3,0-5.9-2.7-5.9-6.3v-0.1c0-3.5,2.5-6.2,5.6-6.2
				c2.4,0,3.9,1.2,5.1,2.5l0.3,0.3L93,5.8l-0.3-0.3c-2.3-2.6-5-3.8-8.7-3.8c-6.4,0-11.4,5-11.4,11.4v0.1c0,6.3,5,11.3,11.3,11.3
				C88.7,24.6,91.2,22.5,93,20.5z"/>
			<path d="M106.1,24.5c6.6,0,11.7-5,11.7-11.4V13c0-6.4-5.1-11.4-11.6-11.4c-6.6,0-11.7,5-11.7,11.4v0.1
				C94.5,19.5,99.6,24.5,106.1,24.5z M100.2,13c0-3.6,2.5-6.3,5.9-6.3s6,2.7,6,6.3v0.1c0,3.1-2,6.2-5.9,6.2
				C102.9,19.4,100.2,16.6,100.2,13L100.2,13L100.2,13z"/>
			<path d="M63.3,2.4v0.4v12c0,2.5-1.6,4.1-3.9,4.1c-2.3,0-4-1.8-4-4.2V2.4h-6v12.5c0,5.4,4.4,9,9.9,9c1.7,0,3.3-0.6,4.7-1.3
				c0.1-0.1,0.2-0.1,0.4-0.2l0.1,1.1v0.4h4.8v-9.1v-2V2.4H63.3L63.3,2.4z"/>
			<path d="M127.1,23.9v-0.4v-12c0-2.5,1.6-4.2,3.9-4.2s4,1.8,4,4.2v12.4h6V11.4c0-5.4-4.4-9-9.9-9c-1.7,0-3.3,0.6-4.7,1.3
				c-0.1,0.1-0.2,0.1-0.4,0.2l-0.1-1.1V2.4h-4.8v9.1v2v10.4H127.1L127.1,23.9L127.1,23.9z"/>
			<path d="M39.6,2.7v0.9c-1.7-1-3.8-2-6.1-2c-6.7,0-11.9,4.7-11.9,11.2V13c0,6.5,5.2,11.1,11.9,11.1c2.3,0,4.4-1.1,6.1-2.1v0.9v0.6
				H45V2.2h-5.4V2.7L39.6,2.7z M33.8,19.3c-3.6,0-6.6-2.9-6.6-6.4s2.9-6.4,6.6-6.4c3.6,0,6.6,2.9,6.6,6.4
				C40.3,16.5,37.4,19.3,33.8,19.3z"/>
			<path d="M11.2,5.4c1.5,0,3.5,0.7,6,2.1l0.2,0.1l2.3-4.1l-0.2-0.1C17,1.9,13.9,1,11.2,1C7,1,2.8,3.2,2.8,8.2v0.1
				c0,4.1,3.8,5.7,7,6.7c2.2,0.6,4.3,1.4,4.3,3v0.1c0,0.7-0.3,2.5-3.2,2.5c-2,0-4.6-1.2-7.2-3l-0.2-0.1L1,21.4l0.2,0.1
				C4,23.6,7.4,25,10.8,25c5.7,0,8.8-2.7,8.8-7.3v-0.5c0-2.9-2.3-5-7-6.6l0,0l0,0l0,0L12,10.5C9.9,9.8,8.3,9.3,8.3,7.6V7.5
				C8.2,6.5,9.2,5.4,11.2,5.4z"/>
		</g>
	</g>
</g>
</svg>
